<svg width="15" height="14" viewBox="0 0 15 14" fill="none" xmlns="http://www.w3.org/2000/svg">
<path fill-rule="evenodd" clip-rule="evenodd" d="M7.5 14C11.366 14 14.5 10.866 14.5 7C14.5 3.13401 11.366 0 7.5 0C3.63401 0 0.5 3.13401 0.5 7C0.5 10.866 3.63401 14 7.5 14ZM7.50001 3.61666C7.82217 3.61666 8.08334 3.87782 8.08334 4.19999V6.41666H10.3C10.6222 6.41666 10.8833 6.67782 10.8833 6.99999C10.8833 7.32215 10.6222 7.58332 10.3 7.58332H8.08334V9.79999C8.08334 10.1222 7.82217 10.3833 7.50001 10.3833C7.17784 10.3833 6.91667 10.1222 6.91667 9.79999V7.58332H4.70001C4.37784 7.58332 4.11667 7.32215 4.11667 6.99999C4.11667 6.67782 4.37784 6.41666 4.70001 6.41666H6.91667V4.19999C6.91667 3.87782 7.17784 3.61666 7.50001 3.61666Z" fill="white" fill-opacity="0.1"/>
</svg>

